<?xml version="1.0" standalone="no"?>
<!DOCTYPE svg PUBLIC "-//W3C//DTD SVG 20010904//EN"
 "http://www.w3.org/TR/2001/REC-SVG-20010904/DTD/svg10.dtd">
<svg version="1.0" xmlns="http://www.w3.org/2000/svg"
 width="768.000000pt" height="768.000000pt" viewBox="0 0 768.000000 768.000000"
 preserveAspectRatio="xMidYMid meet">

<g transform="translate(0.000000,768.000000) scale(0.100000,-0.100000)"
fill="#000000" stroke="none">
<path d="M3745 6743 c-194 -14 -492 -83 -639 -148 -46 -20 -69 -24 -143 -23
-77 1 -102 -3 -200 -36 -226 -74 -332 -138 -503 -303 l-100 -96 -55 6 c-64 6
-75 -11 -26 -41 l30 -18 -34 -27 c-19 -15 -39 -27 -44 -27 -6 0 -11 -6 -11
-13 0 -25 -51 -82 -122 -137 -40 -31 -81 -70 -91 -87 -18 -31 -18 -32 4 -54
15 -15 19 -24 11 -27 -17 -5 -109 -143 -134 -200 -36 -81 -96 -268 -108 -334
-6 -34 -16 -81 -22 -103 -6 -22 -11 -65 -13 -95 -1 -30 -7 -82 -13 -115 -6
-33 -14 -77 -17 -99 -6 -33 -12 -40 -46 -54 -48 -18 -55 -52 -11 -52 15 0 34
5 42 10 12 7 17 -2 26 -49 27 -130 120 -304 214 -400 32 -32 84 -71 123 -91
37 -19 67 -39 66 -45 0 -5 -22 -27 -50 -48 -100 -76 -172 -227 -172 -362 -1
-130 36 -238 116 -336 24 -30 47 -67 51 -83 11 -43 58 -86 96 -86 20 0 33 -6
37 -17 3 -10 23 -55 44 -101 67 -145 181 -243 389 -333 83 -36 127 -48 243
-70 50 -9 57 -13 57 -34 0 -13 11 -36 24 -52 18 -22 22 -33 15 -52 -20 -51 41
-73 194 -70 97 1 106 0 162 -30 83 -42 93 -52 97 -92 3 -31 7 -35 53 -51 28
-9 67 -17 87 -17 33 -1 68 -21 68 -39 0 -22 132 -83 243 -112 48 -13 53 -21
41 -68 -6 -23 -7 -23 -21 -3 -8 12 -35 35 -61 53 -41 29 -55 33 -112 33 -50 0
-71 -5 -91 -20 -42 -31 -68 -77 -75 -128 -7 -47 -25 -60 -32 -21 -2 10 -17 31
-33 46 -16 15 -29 34 -29 42 0 20 -46 50 -65 42 -19 -7 -20 -32 -1 -43 7 -4
21 -23 30 -41 9 -18 23 -35 30 -38 8 -3 16 -17 19 -32 4 -16 20 -36 41 -49 24
-15 36 -32 40 -55 15 -78 30 -120 47 -131 10 -7 21 -25 24 -40 6 -24 4 -29
-24 -38 -17 -6 -31 -15 -31 -20 0 -5 -11 -7 -25 -3 -13 3 -47 1 -75 -6 -48
-12 -50 -11 -74 17 -14 15 -26 40 -26 54 0 47 -21 89 -51 105 -51 26 -64 3
-24 -40 18 -20 25 -38 25 -69 0 -36 7 -49 44 -89 l44 -48 51 16 c31 9 65 12
87 8 23 -4 40 -2 52 7 50 41 60 41 102 8 22 -18 40 -34 40 -35 0 -2 -9 -19
-21 -39 -12 -19 -19 -42 -15 -50 12 -31 -51 -45 -239 -50 -82 -2 -194 -7 -247
-10 -79 -5 -98 -4 -98 7 0 7 13 19 30 25 16 6 38 25 47 42 16 27 24 31 61 31
30 0 42 4 42 15 0 17 -30 35 -59 35 -11 0 -26 8 -33 18 -15 22 -70 33 -127 25
-36 -5 -41 -9 -42 -32 0 -24 -1 -24 -9 -5 -9 22 -68 44 -119 44 -25 0 -34 6
-42 27 -6 15 -25 39 -42 54 -30 25 -32 31 -32 93 0 61 2 66 21 66 41 0 54 35
39 105 -6 25 -2 35 24 58 17 15 31 36 31 47 0 10 9 24 20 30 13 7 20 21 20 38
0 16 5 33 12 40 21 21 81 14 118 -13 l34 -25 42 25 c48 28 86 32 104 10 16
-20 50 -19 50 0 0 9 -12 27 -26 42 -22 22 -32 25 -75 21 -27 -3 -58 -13 -68
-22 -18 -16 -21 -16 -57 3 -64 34 -111 28 -188 -24 -37 -25 -86 -54 -111 -65
-24 -10 -51 -30 -60 -44 -9 -13 -30 -28 -46 -31 -27 -6 -69 -47 -69 -67 0 -6
-9 -21 -20 -35 -28 -35 -25 -69 8 -99 15 -14 38 -36 52 -50 14 -13 32 -24 40
-24 23 -1 45 -22 59 -58 8 -18 26 -43 42 -56 15 -13 34 -39 42 -59 15 -34 17
-35 83 -41 38 -3 77 -7 86 -8 18 -2 18 -2 -30 -62 -36 -45 -27 -86 23 -111 36
-18 58 -20 205 -18 370 5 491 15 526 44 7 6 18 1 30 -12 10 -12 36 -30 56 -40
41 -21 42 -21 178 18 73 21 113 25 280 29 250 6 294 20 255 80 -19 29 -19 31
3 36 10 3 28 -3 40 -13 38 -30 148 -42 276 -30 62 6 135 18 161 26 27 8 52 12
57 9 15 -10 48 17 48 40 0 12 21 55 46 94 68 107 76 142 59 254 -20 134 -73
254 -213 478 -79 126 -102 159 -164 229 -26 30 -45 57 -43 60 3 3 36 13 73 23
83 22 168 16 177 -13 3 -10 20 -30 36 -44 60 -49 147 -22 165 52 5 17 13 23
33 23 103 1 302 82 426 173 150 111 257 344 257 563 0 51 -3 106 -7 122 -5 26
-3 30 22 35 16 3 50 24 75 47 40 35 53 56 89 150 25 64 49 110 58 113 17 4
124 214 161 315 22 60 24 62 44 49 31 -21 82 -30 102 -19 14 8 5 16 -47 44
-35 18 -63 39 -61 46 63 306 64 314 58 442 -8 146 -25 250 -50 302 -13 27 -15
41 -7 55 11 21 11 21 -61 125 -33 47 -66 113 -175 347 -25 54 -25 54 -7 106
26 78 -2 118 -35 50 -12 -25 -15 -26 -23 -11 -7 13 -5 23 11 40 12 12 21 28
21 34 0 17 -25 15 -40 -3 -17 -20 -27 -19 -35 5 -11 36 -237 365 -283 413
-120 125 -271 216 -475 286 -189 65 -308 84 -507 79 -163 -3 -200 -10 -200
-39 0 -5 87 -9 193 -9 163 0 209 -4 307 -24 118 -24 170 -40 170 -52 0 -4 -26
-4 -57 0 -32 4 -71 9 -88 11 -16 2 -50 8 -75 14 -59 14 -252 14 -322 0 l-55
-11 -75 51 c-42 28 -118 70 -169 92 -52 23 -103 48 -114 56 -18 14 -16 15 24
9 25 -4 77 -20 115 -36 39 -17 78 -30 87 -30 10 0 20 -11 23 -25 7 -28 31 -33
40 -9 3 9 6 31 6 50 0 66 -34 95 -63 54 -13 -19 -14 -19 -74 5 -87 35 -163 53
-282 65 -100 10 -142 10 -246 3z m-1108 -330 c3 -7 -42 -42 -99 -79 -202 -132
-260 -184 -387 -345 -37 -48 -124 -125 -188 -168 -22 -15 -38 -32 -35 -39 8
-26 -23 -79 -97 -162 -41 -47 -77 -87 -79 -90 -9 -9 11 25 70 114 62 95 67
110 42 124 -14 8 -9 15 26 43 23 19 74 61 112 94 39 33 82 67 97 76 14 9 28
24 29 35 5 26 189 212 287 289 78 61 191 127 209 121 6 -1 11 -7 13 -13z
m-510 -728 c20 -29 7 -55 -55 -112 -57 -53 -85 -63 -122 -43 -46 24 -31 124
23 160 41 27 132 24 154 -5z m-174 -216 c27 -42 -31 -103 -60 -63 -18 24 -16
49 3 69 19 19 43 16 57 -6z m-328 -874 c37 -110 43 -122 113 -213 55 -73 167
-179 243 -229 47 -31 45 -44 -3 -15 -18 11 -52 25 -76 32 -52 13 -157 112
-217 205 -50 76 -101 195 -113 263 -8 47 -7 53 7 50 10 -2 27 -35 46 -93z
m4565 -127 c-1 -38 -18 -102 -29 -106 -6 -2 -11 -21 -11 -42 0 -53 -41 -177
-93 -280 -39 -78 -45 -85 -70 -82 -22 3 -27 -1 -32 -25 -24 -111 -72 -242
-103 -276 -28 -32 -94 -77 -103 -71 -17 10 -9 31 17 45 47 25 174 261 174 323
0 28 27 59 45 52 26 -10 122 243 146 384 7 41 17 81 22 88 15 20 37 14 37 -10z
m-253 -140 c7 -14 16 -53 19 -86 6 -56 5 -62 -19 -86 -30 -30 -86 -35 -111
-10 -19 18 -19 30 -7 87 6 23 12 54 16 69 5 28 48 59 75 55 8 -1 21 -14 27
-29z m-2777 -138 c42 -21 90 -38 106 -38 28 0 73 -14 194 -62 107 -43 125 -49
142 -50 9 0 21 -7 26 -15 12 -23 138 -40 166 -22 23 14 207 15 328 2 57 -7 72
-5 111 14 l46 22 38 -19 c50 -26 138 -148 199 -276 33 -71 50 -96 64 -96 21 0
25 -11 35 -85 4 -27 11 -55 17 -62 11 -14 38 -6 38 12 0 18 127 142 190 185
190 129 333 159 525 110 160 -40 242 -100 306 -220 22 -41 24 -57 24 -180 -1
-156 -19 -234 -82 -351 -69 -128 -143 -196 -300 -273 -103 -50 -143 -61 -275
-76 -146 -15 -175 -14 -183 10 -8 24 -35 27 -35 4 0 -13 -7 -15 -34 -10 -23 4
-63 -2 -122 -19 -94 -27 -144 -31 -260 -20 -61 6 -78 4 -120 -15 -60 -27 -59
-26 -224 -46 -100 -12 -142 -21 -164 -36 -28 -20 -29 -20 -60 -2 -28 17 -61
20 -306 25 -157 4 -301 12 -335 19 l-60 13 0 166 c0 149 -2 171 -21 211 -12
25 -26 58 -31 75 -5 17 -20 35 -36 43 -25 12 -27 18 -27 71 0 57 1 58 33 67
22 7 32 16 32 29 0 16 -6 20 -32 19 -17 -1 -46 -9 -64 -18 -32 -16 -35 -16
-61 4 -49 36 -82 21 -48 -23 30 -38 23 -137 -10 -137 -25 0 -53 -36 -56 -73
-1 -17 -7 -50 -13 -72 -6 -22 -11 -73 -11 -113 0 -58 -4 -79 -20 -99 -11 -14
-20 -33 -20 -42 0 -9 -7 -24 -15 -35 -12 -16 -18 -17 -46 -7 -18 6 -47 11 -65
11 -66 0 -273 87 -377 158 -101 70 -195 213 -217 332 -13 66 -4 197 17 264 9
28 31 83 49 123 19 41 34 84 34 97 0 12 -18 65 -41 117 -22 52 -47 122 -54
156 -7 34 -16 66 -20 72 -8 14 -7 14 62 -4 31 -8 92 -15 134 -15 73 0 78 -1
81 -22 2 -19 10 -24 45 -26 58 -4 106 10 118 36 9 20 17 21 120 22 60 0 144 8
185 16 41 9 107 15 146 15 81 -2 107 6 180 59 21 16 21 17 -47 110 -38 52 -69
96 -69 97 0 1 21 -18 47 -43 25 -25 81 -63 123 -84z m45 74 c24 -15 32 -24 20
-22 -12 2 -19 -2 -17 -10 2 -14 -92 30 -103 48 -13 20 61 9 100 -16z m832
-147 c44 -14 104 -29 132 -33 28 -3 59 -13 68 -20 16 -12 10 -13 -45 -14 -45
0 -68 5 -79 16 -11 11 -26 14 -47 10 -24 -5 -50 3 -105 29 -40 19 -77 35 -83
35 -14 0 -171 104 -188 125 -8 10 48 -14 125 -53 77 -38 177 -81 222 -95z
m-651 69 c74 -30 265 -72 366 -81 43 -4 80 -11 84 -16 3 -5 23 -9 44 -9 21 0
42 -4 45 -10 4 -6 -18 -10 -58 -10 -50 0 -70 5 -91 21 -22 17 -35 20 -69 15
-67 -11 -99 -10 -106 3 -4 7 -42 20 -85 31 -42 10 -104 32 -139 48 -75 37 -72
40 9 8z m-702 -1 c44 -34 127 -47 254 -43 67 3 125 1 128 -4 3 -4 -24 -8 -60
-8 -47 0 -65 -4 -63 -12 4 -21 -36 -20 -121 1 -83 20 -214 80 -177 80 11 0 29
-6 39 -14z m-327 -41 c62 -30 121 -51 180 -62 60 -11 79 -18 58 -20 -51 -6
-147 18 -257 66 -59 26 -108 50 -108 55 0 16 39 5 127 -39z m1889 -25 c4 -8 1
-8 -14 0 -12 6 -24 16 -28 22 -4 8 -1 8 14 0 12 -6 24 -16 28 -22z m-2117 -47
c-14 -5 -76 17 -88 32 -7 9 9 6 43 -8 30 -11 50 -22 45 -24z m3739 25 c4 -22
-27 -35 -38 -16 -10 15 7 42 24 36 6 -2 12 -11 14 -20z m-3509 -34 c2 -1 -3
-3 -11 -3 -9 0 -26 9 -39 20 l-24 20 35 -17 c19 -9 37 -18 39 -20z m334 10
c-13 -2 -33 -2 -45 0 -13 2 -3 4 22 4 25 0 35 -2 23 -4z m1970 -25 c21 -11 21
-11 2 -19 -32 -12 -165 -9 -225 5 l-55 13 114 1 c63 1 116 4 119 7 8 8 21 6
45 -7z m-2663 -57 c0 -50 31 -147 74 -236 l34 -69 -28 -56 c-43 -85 -77 -187
-89 -270 -7 -41 -14 -76 -16 -78 -9 -9 -56 30 -66 54 -5 14 -15 24 -21 22 -26
-9 -93 101 -118 194 -7 29 -11 84 -8 140 3 82 8 102 41 169 44 92 121 169 168
169 27 0 29 -3 29 -39z m-24 -769 c-10 -2 -22 0 -28 6 -6 6 0 7 19 4 21 -5 23
-7 9 -10z m1014 -72 c0 -75 -1 -80 -21 -80 -13 0 -19 5 -16 13 3 8 8 44 12 80
4 37 11 67 16 67 5 0 9 -36 9 -80z m-90 -64 c0 -3 -4 -8 -10 -11 -5 -3 -10 -1
-10 4 0 6 5 11 10 11 6 0 10 -2 10 -4z m147 -72 c16 -3 35 -15 42 -27 20 -30
25 -169 11 -272 -6 -49 -14 -115 -17 -145 -3 -33 -11 -60 -21 -67 -10 -9 -50
-13 -111 -13 -107 0 -142 11 -92 28 17 6 32 17 33 24 0 7 2 18 2 25 1 6 12 24
25 38 13 16 21 35 18 46 -3 10 1 23 9 30 18 15 18 43 -1 59 -9 7 -13 20 -10
28 8 22 -14 42 -48 42 l-30 0 5 94 c3 51 8 98 12 105 8 12 122 15 173 5z
m-174 -276 c3 -12 2 -29 -3 -39 -6 -10 -7 -25 -4 -34 6 -15 -23 -95 -34 -95
-3 0 -13 7 -22 15 -13 12 -16 27 -13 63 3 26 9 51 14 57 5 5 9 17 9 26 0 32
45 38 53 7z m2127 -108 c-7 -13 -21 -20 -39 -20 -15 0 -36 9 -46 20 -18 20
-17 20 39 20 54 0 56 -1 46 -20z m-636 -16 c3 -8 2 -13 -3 -10 -4 3 -17 -4
-27 -15 -17 -19 -16 -19 23 2 23 12 40 25 38 29 -2 3 13 4 33 2 67 -6 82 -12
82 -32 0 -11 12 -26 29 -34 16 -9 41 -30 56 -47 19 -23 29 -29 34 -20 10 16
138 -175 226 -338 85 -154 117 -252 119 -357 1 -79 0 -82 -46 -158 -27 -43
-48 -85 -48 -92 0 -8 -4 -14 -9 -14 -17 0 -19 24 -5 58 7 17 10 32 6 32 -4 0
-2 4 4 8 19 13 74 138 74 168 0 17 -6 36 -12 43 -7 8 -8 11 -2 8 6 -4 0 25
-14 63 -14 41 -29 67 -35 63 -6 -3 -7 -1 -3 5 4 6 -3 28 -14 49 -12 21 -18 29
-15 18 4 -11 9 -29 11 -40 2 -11 6 -32 9 -47 4 -15 8 -41 10 -58 6 -45 15 -71
24 -66 10 6 1 -66 -10 -80 -5 -6 -9 -22 -8 -35 1 -37 -30 -121 -50 -133 -4 -3
-22 20 -39 52 -43 80 -138 219 -197 289 -48 57 -83 83 -112 83 -22 0 -15 55
12 94 30 45 28 42 114 144 70 83 80 112 38 112 -49 0 -276 -265 -309 -361 -6
-17 -19 -29 -36 -32 -15 -3 -34 -8 -42 -11 -18 -8 -105 65 -126 105 -16 32
-19 85 -5 94 5 3 13 20 16 38 4 17 25 84 46 147 20 63 36 117 34 119 -7 7 -45
-90 -39 -100 3 -5 1 -9 -4 -9 -20 0 -86 -228 -75 -257 4 -10 2 -14 -4 -10 -6
4 -13 -10 -17 -36 -6 -38 -4 -44 21 -64 33 -27 24 -40 -16 -23 -37 15 -46 40
-28 77 8 15 22 66 32 113 53 266 150 452 251 480 1 0 5 -7 8 -16z m-1135 -66
c25 -15 53 -28 62 -28 15 0 16 -5 7 -34 -19 -60 14 -86 41 -33 10 20 10 19 7
-9 -2 -17 -9 -41 -16 -53 -9 -18 -9 -26 2 -39 9 -11 10 -14 1 -8 -18 10 -16
-9 2 -24 22 -18 13 -22 -23 -9 -28 10 -30 14 -29 52 2 35 -1 42 -16 39 -10 -2
-31 8 -47 22 -16 13 -46 30 -65 36 -26 8 -35 16 -31 27 3 8 6 35 6 59 0 43 1
44 27 38 15 -4 48 -20 72 -36z m931 -54 c-44 -87 -81 -197 -109 -331 -11 -51
-27 -106 -36 -124 -11 -21 -14 -40 -9 -58 4 -14 6 -30 5 -36 -2 -5 -12 -44
-22 -85 -23 -88 -34 -104 -44 -61 -7 34 -48 81 -69 81 -20 0 -40 27 -26 35 15
9 12 35 -4 35 -7 0 -21 11 -29 24 -14 21 -14 26 -1 52 19 37 38 57 28 29 -7
-18 -6 -19 10 -5 10 8 28 14 39 15 37 0 30 31 -17 78 -48 47 -66 81 -66 122 0
14 -12 50 -26 82 -15 32 -29 77 -32 101 -2 23 -9 42 -14 42 -11 0 -1 -91 10
-100 4 -3 7 -9 7 -15 1 -5 14 -50 29 -98 25 -76 28 -97 22 -155 -9 -86 -10
-95 -20 -110 -4 -7 -6 -25 -5 -40 2 -15 -1 -28 -6 -29 -13 -3 -8 64 10 133 11
44 12 61 3 78 -7 11 -11 35 -9 51 1 17 -9 56 -23 87 -14 32 -30 87 -36 123 -9
59 -9 66 10 85 21 21 40 26 40 11 0 -5 11 -23 25 -39 24 -29 28 -30 104 -28
87 2 97 7 142 72 30 44 36 46 131 52 l27 2 -39 -76z m-527 49 c-34 -2 -93 -2
-130 0 -37 2 -9 3 62 3 72 0 102 -1 68 -3z m-81 -58 c20 -3 52 -15 72 -28 29
-18 37 -31 46 -77 7 -30 23 -78 36 -106 13 -28 24 -56 24 -61 0 -13 -70 1 -79
15 -3 6 -20 14 -36 18 -17 3 -38 14 -48 22 -10 9 -33 25 -51 36 -81 50 -144
124 -144 168 l1 28 71 -5 c39 -3 88 -8 108 -10z m24 -264 c17 -10 61 -29 97
-41 37 -13 67 -27 67 -31 0 -12 -2 -12 -72 7 -98 25 -138 44 -138 65 0 24 7
24 46 0z m-903 -182 c-3 -11 -12 -23 -20 -26 -17 -6 -43 -55 -43 -79 0 -10
-12 -31 -27 -46 -22 -23 -28 -38 -28 -77 0 -48 0 -48 -25 -37 -14 6 -34 20
-46 31 -11 11 -29 25 -39 31 -20 11 -19 12 18 78 16 28 32 42 55 48 17 5 40
20 49 35 9 14 35 34 58 44 51 24 54 23 48 -2z m780 -41 c-19 -70 -11 -167 21
-258 32 -93 66 -144 116 -172 22 -13 40 -29 40 -35 0 -20 -96 54 -144 110 -35
42 -47 66 -60 124 -18 83 -21 179 -5 220 9 23 37 63 44 63 1 0 -4 -24 -12 -52z
m105 6 c3 -22 -34 -67 -51 -61 -23 7 -19 54 5 71 27 19 42 16 46 -10z m562
-104 c11 -6 5 -13 -23 -26 -42 -20 -52 -15 -43 21 7 27 23 28 66 5z m389 5
c43 -15 90 -45 91 -57 0 -4 -31 9 -70 28 -38 20 -70 38 -70 40 0 6 4 5 49 -11z
m-981 -12 c5 -17 -26 -29 -40 -15 -6 6 -7 15 -3 22 9 14 37 9 43 -7z m952 -33
c41 -41 -10 -69 -59 -31 -16 12 -22 24 -18 35 9 22 53 20 77 -4z m77 -56 c9
-23 -13 -40 -32 -24 -12 10 -13 16 -4 26 15 18 28 18 36 -2z m-501 -20 c-3 -9
-6 -39 -7 -67 l-1 -52 -13 30 c-18 38 -19 77 -3 93 17 17 31 15 24 -4z m-35
-193 c21 -62 39 -118 39 -125 0 -17 -35 -31 -123 -51 -38 -9 -103 -27 -145
-40 -125 -39 -154 -36 -206 25 -26 32 -25 60 2 60 34 0 105 45 179 112 91 83
193 152 205 140 5 -5 27 -60 49 -121z m467 -87 c63 -23 67 -34 10 -27 -49 5
-98 22 -98 33 0 12 13 21 24 17 6 -3 35 -13 64 -23z m-1530 10 c35 -10 24 -44
-27 -78 -24 -16 -46 -37 -49 -48 -3 -12 -14 -18 -33 -18 -41 0 -46 24 -15 61
14 17 29 41 32 54 4 16 15 25 32 28 15 2 29 5 32 5 3 1 15 -1 28 -4z m1306
-80 c34 -13 14 -24 -41 -23 l-58 1 40 13 c22 7 41 13 42 14 1 1 8 -2 17 -5z"/>
<path d="M2399 3919 c-45 -7 -130 -44 -181 -80 -28 -20 -29 -28 -32 -184 -1
-59 3 -77 26 -116 37 -63 88 -105 150 -124 65 -19 103 -19 160 1 135 46 212
203 164 337 -41 114 -162 185 -287 166z"/>
<path d="M3650 3892 c-49 -6 -148 -43 -194 -72 -46 -29 -61 -60 -30 -60 12 0
15 -6 10 -22 -4 -13 -10 -51 -13 -85 -17 -182 152 -321 328 -269 65 18 131 72
160 128 61 119 16 278 -97 344 -43 25 -119 42 -164 36z"/>
<path d="M5176 3338 c-74 -74 -102 -123 -85 -149 8 -11 14 -9 33 13 13 15 31
37 39 49 l16 22 31 -27 c37 -31 73 -36 63 -8 -9 25 -34 52 -50 52 -24 0 -14
17 32 54 51 42 58 66 19 66 -19 0 -46 -19 -98 -72z"/>
<path d="M4135 3140 c-4 -7 -3 -16 3 -22 14 -14 45 -2 40 15 -6 16 -34 21 -43
7z"/>
<path d="M5106 2909 c-53 -42 -26 -129 42 -129 26 0 63 17 74 34 16 23 8 73
-15 94 -29 28 -67 28 -101 1z"/>
<path d="M1850 3748 c0 -7 4 -20 10 -28 6 -9 5 -19 -2 -28 -12 -14 4 -32 28
-32 7 0 14 -7 18 -15 7 -18 36 -20 37 -2 3 31 -5 54 -27 85 -25 31 -64 44 -64
20z"/>
<path d="M4255 2504 c-9 -14 -15 -27 -13 -30 2 -2 12 10 22 26 21 37 15 40 -9
4z"/>
<path d="M2872 1858 c-46 -22 -36 -98 13 -98 51 0 87 78 46 100 -24 12 -29 12
-59 -2z"/>
<path d="M2677 1789 c-9 -6 -17 -18 -17 -28 0 -10 -7 -24 -15 -31 -20 -16 -19
-29 3 -37 9 -4 25 -16 34 -28 13 -16 19 -18 29 -7 10 9 11 19 3 41 -9 21 -8
32 2 46 18 25 18 32 -4 44 -11 6 -24 6 -35 0z"/>
<path d="M5004 1625 c-6 -15 -4 -36 12 -115 l7 -35 -23 23 c-30 32 -50 14 -26
-22 19 -30 39 -32 90 -11 26 11 42 13 56 5 26 -14 36 -13 54 6 10 9 14 24 10
39 -3 13 0 26 7 31 9 5 10 2 6 -9 -4 -10 -2 -28 2 -41 8 -19 19 -24 62 -29 55
-7 79 3 79 30 0 10 -6 13 -17 8 -33 -12 -37 -10 -42 19 -8 38 -28 45 -37 12
-8 -32 -20 -26 -29 13 -4 20 -14 30 -30 34 -32 6 -35 1 -35 -45 0 -46 -23 -49
-28 -4 -4 33 -35 32 -40 -2 -4 -24 -22 -31 -22 -8 0 8 -4 16 -10 18 -5 2 -13
18 -16 36 -6 29 -4 33 12 30 12 -2 19 3 19 12 0 21 -53 26 -61 5z"/>
<path d="M5095 1591 c-6 -11 9 -23 19 -14 9 9 7 23 -3 23 -6 0 -12 -4 -16 -9z"/>
<path d="M5240 1585 c0 -9 5 -15 11 -13 6 2 11 8 11 13 0 5 -5 11 -11 13 -6 2
-11 -4 -11 -13z"/>
</g>
</svg>
